<svg xmlns="http://www.w3.org/2000/svg" viewBox="0 0 64 64"><rect width="64" height="64" fill="#F3ECE0"/><g fill="#8A6D3B"><path transform="translate(5.000,39.803) scale(0.022296,-0.022296)" d="M797 351Q797 179 704.5 82.5Q612 -14 443 -14Q329 -14 237.5 34.0Q146 82 95.5 165.0Q45 248 45.0 350.5Q45 453 95.0 536.0Q145 619 233.0 666.5Q321 714 429 714Q497 714 567.5 695.5Q638 677 685 646L705 505H696Q675 589 599.0 636.5Q523 684 430 684Q297 684 208.5 589.5Q120 495 120.0 352.0Q120 209 211.5 112.5Q303 16 451.0 16.0Q599 16 692.5 112.0Q786 208 786 375H796Q797 363 797 351Z"/><path transform="translate(23.305,39.803) scale(0.022296,-0.022296)" d="M1144 -70Q1056 -146 949 -146Q873 -146 784 -105Q730 -79 684.0 -43.5Q638 -8 571 47Q480 -13 366 -13Q309 -13 254 3Q174 25 120 81Q64 139 64 222Q64 286 94.5 333.5Q125 381 179 409Q136 475 136.0 546.5Q136 618 186.0 666.0Q236 714 326 714Q440 714 503 643L489 530H479Q476 601 436.0 642.5Q396 684 335.0 684.0Q274 684 239.0 645.5Q204 607 204 550Q204 486 244.5 432.0Q285 378 378.5 297.0Q472 216 601 107Q655 156 690 223Q738 312 738 417Q738 467 726 516Q708 591 648.0 662.0Q588 733 492 783L497 789Q581 755 640 701Q766 586 766 410Q766 300 707 194Q673 134 624 88L688 36Q790 -46 892 -81Q939 -97 1002.0 -97.0Q1065 -97 1139 -61ZM223 72Q294 18 384 18Q471 18 548 66Q409 182 323.0 257.0Q237 332 196 385Q136 329 136.0 233.0Q136 137 223 72Z"/><path transform="translate(41.543,39.803) scale(0.022296,-0.022296)" d="M887 872Q895 872 904 872V862Q794 862 730.0 789.5Q666 717 666 580V247Q666 130 592.0 58.0Q518 -14 395.0 -14.0Q272 -14 195.5 57.5Q119 129 119 246V641Q119 670 93 684Q81 690 66 690H50V700H253V690H237Q215 690 200.0 676.5Q185 663 184 642V260Q184 151 242.5 84.5Q301 18 396 18Q497 18 558.0 81.0Q619 144 619 247V579Q619 726 693.5 799.0Q768 872 887 872Z"/></g></svg>